<svg xmlns="http://www.w3.org/2000/svg" height="67px" width="152px" xmlns:xlink="http://www.w3.org/1999/xlink" version="1.1" id="Layer_1" x="0px" y="0px" viewBox="0 0 152 67" style="enable-background:new 0 0 152 67;" xml:space="preserve">
    <style type="text/css">
    .st0 {
        fill: url(#SVGID_1_);
    }

    .st1 {
        fill: #A7CE37;
    }

    .st2 {
        fill: url(#SVGID_00000055692381121755872080000012943805535587822482_);
    }

    .st3 {
        fill: #FFFFFF;
    }

    .st4 {
        fill: #046937;
    }

    .st5 {
        fill: #808285;
    }

    .st6 {
        fill: #58595B;
    }
</style>
    <g>
        <linearGradient id="SVGID_1_" gradientUnits="userSpaceOnUse" x1="26.3979" y1="55.5168" x2="26.3979" y2="10.7767">
            <stop offset="0" style="stop-color:#10733C"></stop>
            <stop offset="1" style="stop-color:#002F14"></stop>
        </linearGradient>
        <path class="st0" d="M50.18,49.41c0.44,1.88-0.73,3.76-2.61,4.2l-30.45,7.14c-1.88,0.44-3.76-0.73-4.21-2.6L2.62,14.27   c-0.44-1.88,0.72-3.76,2.6-4.2l30.45-7.15c1.88-0.44,3.76,0.73,4.2,2.61L50.18,49.41z"></path>
        <path class="st1" d="M9.88,34.85c0.93,0,1.71-0.34,2.32-1.04c0.31-0.34,0.56-0.7,0.74-1.08c0.03,0.58,0.21,1.06,0.56,1.44   c0.37,0.4,0.86,0.59,1.44,0.59c0.37,0,0.72-0.07,1.06-0.23c0.22-0.11,0.76-0.49,1.62-1.16c0.01,0.5,0.1,0.85,0.28,1.05   c0.18,0.21,0.41,0.32,0.71,0.32c0.57,0,1.17-0.39,1.79-1.14v1.11h0.3c0.08-0.16,0.19-0.23,0.34-0.23c0.12,0,0.3,0.03,0.49,0.09   c0.67,0.18,1.26,0.28,1.76,0.28c0.72,0,1.36-0.23,1.94-0.71c0.58-0.46,0.87-1.09,0.87-1.85c0-0.99-0.62-1.78-1.87-2.39l-1.33-0.65   c-0.59-0.28-0.97-0.55-1.16-0.8c-0.19-0.24-0.29-0.54-0.29-0.89c0-0.27,0.12-0.52,0.39-0.74c0.27-0.24,0.61-0.35,1.04-0.35   c0.56,0,1.03,0.16,1.39,0.49c0.36,0.32,0.66,0.94,0.9,1.84h0.3v-2.18c0.15,0.05,0.28,0.1,0.36,0.16c0.1,0.08,0.22,0.22,0.38,0.44   c0.2,0.28,0.35,0.51,0.44,0.7l3.02,6.35l-0.59,1.46c-0.22,0.54-0.44,0.92-0.66,1.1c-0.22,0.2-0.42,0.29-0.6,0.29   c-0.06,0-0.21-0.05-0.46-0.14c-0.35-0.13-0.62-0.2-0.83-0.2c-0.29,0-0.52,0.08-0.7,0.24c-0.16,0.16-0.25,0.36-0.25,0.61   c0,0.27,0.12,0.51,0.36,0.72c0.23,0.21,0.53,0.31,0.89,0.31c0.49,0,1.01-0.21,1.54-0.63c0.54-0.41,0.98-1.02,1.3-1.85l3.43-8.39   c0.15-0.39,0.26-0.62,0.31-0.71c0.15-0.2,0.28-0.34,0.41-0.42c0.12-0.08,0.29-0.13,0.52-0.15v-0.34h-2.74v0.34   c0.26,0,0.45,0.01,0.55,0.05c0.1,0.05,0.17,0.1,0.23,0.16c0.05,0.06,0.06,0.14,0.06,0.25c0,0.24-0.05,0.5-0.15,0.75l-1.88,4.64   l-2.05-4.24c-0.2-0.43-0.3-0.76-0.3-0.99c0-0.18,0.07-0.33,0.21-0.45c0.13-0.12,0.35-0.17,0.62-0.17h0.19v-0.34h-3.6v-0.25h-0.3   c-0.07,0.16-0.14,0.25-0.19,0.29c-0.06,0.04-0.13,0.07-0.23,0.07c-0.11,0-0.31-0.05-0.63-0.14c-0.47-0.14-0.87-0.22-1.2-0.22   c-0.76,0-1.36,0.24-1.84,0.71c-0.48,0.47-0.72,1.04-0.72,1.74c0,0.53,0.14,0.96,0.42,1.32c0.28,0.35,0.86,0.75,1.74,1.19   c0.89,0.45,1.48,0.81,1.78,1.1c0.29,0.28,0.45,0.64,0.45,1.06c0,0.35-0.14,0.65-0.4,0.89c-0.27,0.24-0.61,0.37-1.03,0.37   c-0.6,0-1.14-0.22-1.63-0.65c-0.48-0.43-0.81-1.08-0.99-1.94h-0.3v1.33c-0.27,0.26-0.46,0.43-0.56,0.49   c-0.07,0.05-0.15,0.07-0.25,0.07c-0.09,0-0.18-0.03-0.24-0.09c-0.07-0.06-0.12-0.18-0.15-0.36c-0.03-0.19-0.04-0.67-0.04-1.48   v-2.85c0-0.82-0.06-1.36-0.17-1.62c-0.17-0.41-0.43-0.71-0.8-0.9c-0.47-0.25-1.08-0.38-1.84-0.38c-0.97,0-1.73,0.23-2.26,0.66   c-0.54,0.45-0.8,0.93-0.8,1.45c0,0.28,0.08,0.49,0.21,0.65c0.15,0.16,0.33,0.24,0.55,0.24c0.24,0,0.43-0.07,0.56-0.23   c0.14-0.15,0.23-0.37,0.23-0.65l-0.03-0.53c0-0.27,0.12-0.51,0.36-0.71c0.22-0.22,0.53-0.31,0.91-0.31c0.51,0,0.89,0.15,1.17,0.47   c0.26,0.31,0.39,0.89,0.39,1.73v0.33c-1.44,0.53-2.47,0.97-3.1,1.33c-0.59,0.36-1.01,0.73-1.26,1.12l-0.21-0.13   c-0.27,0.73-0.62,1.25-1.03,1.55c-0.4,0.3-0.88,0.46-1.43,0.46c-0.83,0-1.55-0.36-2.16-1.06c-0.61-0.71-0.91-1.69-0.91-2.95h5.82   c0-1.04-0.31-1.86-0.92-2.49c-0.6-0.62-1.38-0.94-2.31-0.94c-1.12,0-2.04,0.4-2.79,1.21c-0.6,0.66-0.95,1.52-1.06,2.6l0.88,3.75   c0.05,0.06,0.1,0.14,0.16,0.19C8,34.45,8.87,34.85,9.88,34.85 M14.78,31.19c0.21-0.29,0.56-0.58,1.04-0.85   c0.26-0.15,0.86-0.41,1.78-0.77v3.2c-0.76,0.6-1.37,0.92-1.84,0.92c-0.34,0-0.64-0.14-0.91-0.44c-0.26-0.29-0.4-0.66-0.4-1.1   C14.47,31.81,14.57,31.49,14.78,31.19 M8.21,27.16c0.41-0.4,0.86-0.6,1.36-0.6c0.34,0,0.65,0.1,0.96,0.3   c0.3,0.2,0.52,0.47,0.68,0.81c0.1,0.22,0.17,0.6,0.19,1.14H7.5C7.58,28.11,7.81,27.55,8.21,27.16"></path>
        <g>
            <path class="st1" d="M40.7,49.88c-0.39-0.5-0.91-0.73-1.55-0.73c-0.36,0-0.69,0.09-1.01,0.27c-0.31,0.18-0.57,0.47-0.76,0.86    c-0.19,0.37-0.29,0.77-0.29,1.15c0,0.15,0.02,0.3,0.05,0.45l-0.09-0.05c-0.16,0.38-0.32,0.64-0.5,0.78    c-0.24,0.21-0.52,0.31-0.82,0.31c-0.42,0-0.76-0.19-1-0.58c-0.24-0.39-0.37-0.84-0.37-1.35c0-0.5,0.13-0.9,0.38-1.2    c0.19-0.23,0.43-0.35,0.74-0.35c0.2,0,0.35,0.05,0.45,0.15c0.1,0.1,0.17,0.24,0.19,0.42c0.02,0.18,0.06,0.3,0.1,0.37    c0.1,0.12,0.24,0.18,0.42,0.18c0.13,0,0.24-0.04,0.31-0.11c0.08-0.08,0.11-0.17,0.11-0.29c0-0.23-0.13-0.47-0.41-0.69    c-0.26-0.21-0.62-0.32-1.04-0.32c-0.55,0-1.03,0.21-1.43,0.62c-0.39,0.42-0.6,0.96-0.6,1.63c0,0.69,0.18,1.24,0.54,1.64    c0.36,0.41,0.79,0.61,1.26,0.61c0.41,0,0.78-0.15,1.11-0.45c0.32-0.28,0.53-0.7,0.65-1.2c0.07,0.32,0.21,0.61,0.41,0.89    c0.37,0.51,0.9,0.77,1.53,0.77c0.39,0,0.75-0.1,1.07-0.3c0.32-0.2,0.58-0.49,0.75-0.88c0.18-0.39,0.28-0.78,0.28-1.16    C41.2,50.78,41.03,50.3,40.7,49.88 M40.04,52.96c-0.2,0.24-0.44,0.36-0.74,0.36c-0.4,0-0.72-0.22-0.97-0.67    c-0.25-0.44-0.38-0.98-0.38-1.6c0-0.39,0.05-0.7,0.16-0.95c0.1-0.25,0.24-0.41,0.41-0.51c0.16-0.1,0.33-0.14,0.49-0.14    c0.34,0,0.62,0.15,0.84,0.45c0.33,0.43,0.49,1.03,0.49,1.78C40.33,52.28,40.24,52.71,40.04,52.96"></path>
            <path class="st1" d="M33.01,52.62c-0.14,0-0.26,0.06-0.37,0.15c-0.1,0.1-0.15,0.22-0.15,0.37c0,0.14,0.05,0.26,0.15,0.36    c0.1,0.1,0.22,0.15,0.37,0.15c0.14,0,0.26-0.05,0.36-0.15c0.1-0.1,0.15-0.22,0.15-0.36c0-0.14-0.05-0.27-0.15-0.37    C33.28,52.68,33.16,52.62,33.01,52.62"></path>
            <path class="st1" d="M47.76,53.29c-0.08-0.05-0.14-0.1-0.17-0.17c-0.04-0.1-0.06-0.29-0.06-0.54v-1.83c0-0.39-0.03-0.67-0.1-0.85    c-0.1-0.27-0.24-0.45-0.42-0.57c-0.17-0.12-0.37-0.16-0.6-0.16c-0.23,0-0.46,0.05-0.67,0.16c-0.22,0.12-0.49,0.36-0.81,0.74    c-0.06-0.3-0.19-0.53-0.39-0.68c-0.19-0.16-0.42-0.23-0.68-0.23c-0.17,0-0.32,0.02-0.48,0.09c-0.16,0.06-0.31,0.15-0.45,0.27    c-0.06,0.05-0.24,0.22-0.55,0.54v-0.9h-0.2l-1.28,0.51l0.07,0.17c0.12-0.05,0.22-0.07,0.32-0.07c0.07,0,0.14,0.02,0.18,0.06    c0.05,0.03,0.09,0.11,0.1,0.21c0.03,0.14,0.04,0.44,0.04,0.9v1.63c0,0.26-0.02,0.43-0.06,0.53c-0.04,0.09-0.1,0.16-0.18,0.2    c-0.07,0.04-0.21,0.07-0.41,0.07v0.16h2.1v-0.16c-0.23,0-0.39-0.02-0.46-0.07c-0.07-0.04-0.13-0.1-0.17-0.18    c-0.04-0.09-0.06-0.27-0.06-0.54v-2.28c0.14-0.18,0.33-0.32,0.59-0.46c0.17-0.09,0.33-0.13,0.5-0.13c0.25,0,0.43,0.09,0.58,0.29    c0.1,0.15,0.15,0.4,0.15,0.75v1.83c0,0.25,0,0.4-0.02,0.45c-0.03,0.12-0.09,0.2-0.18,0.25c-0.1,0.05-0.25,0.08-0.48,0.08v0.16    h2.15v-0.16c-0.21,0-0.37-0.02-0.46-0.07c-0.09-0.05-0.15-0.11-0.19-0.18c-0.02-0.07-0.05-0.25-0.05-0.54v-2.03l-0.01-0.2    l0.01-0.05c0.24-0.22,0.44-0.37,0.6-0.46c0.17-0.09,0.34-0.13,0.5-0.13c0.27,0,0.46,0.1,0.58,0.3c0.08,0.15,0.13,0.39,0.13,0.74    v1.83c0,0.24-0.01,0.39-0.02,0.45c-0.03,0.11-0.08,0.19-0.15,0.24c-0.11,0.06-0.25,0.1-0.43,0.1h-0.08v0.16h1.79    c0.1-0.03,0.21-0.07,0.3-0.12v-0.05C47.98,53.36,47.84,53.33,47.76,53.29"></path>
        </g>
        <linearGradient id="SVGID_00000023966660520827167950000012739051382025239978_" gradientUnits="userSpaceOnUse" x1="19.5366" y1="1.9723" x2="20.932" y2="8.5738">
            <stop offset="0" style="stop-color:#4BB749"></stop>
            <stop offset="0.2397" style="stop-color:#47B549"></stop>
            <stop offset="0.4674" style="stop-color:#3BB049"></stop>
            <stop offset="0.6904" style="stop-color:#28A749"></stop>
            <stop offset="0.9092" style="stop-color:#0D9A49"></stop>
            <stop offset="1" style="stop-color:#009349"></stop>
        </linearGradient>
        <path style="fill:url(#SVGID_00000023966660520827167950000012739051382025239978_);" d="M29.87,4.68   c-0.3-1.27-1.57-2.05-2.82-1.75l-3.12,0.73l-0.26-1.09c-0.29-1.26-1.56-2.04-2.82-1.75L17.56,1.6c-1.26,0.29-2.04,1.55-1.75,2.81   l0.25,1.09l-3.11,0.73c-1.26,0.3-2.04,1.56-1.75,2.81l0.59,2.52l18.66-4.38L29.87,4.68z M20.04,4.74   c-0.55,0.13-1.11-0.22-1.24-0.77c-0.13-0.56,0.21-1.11,0.77-1.24c0.55-0.13,1.1,0.21,1.24,0.77C20.94,4.06,20.6,4.61,20.04,4.74"></path>
        <path class="st3" d="M36.96,34.55h-1.68l-4.8,10.51L25.6,34.55H23h-1.2h-4.55v0.37h0.47c0.32,0,0.63,0.08,0.91,0.24   c0.2,0.11,0.34,0.26,0.41,0.42c0.08,0.22,0.13,0.67,0.13,1.35v8.68c0,0.81-0.08,1.31-0.24,1.52c-0.25,0.32-0.65,0.49-1.21,0.49   h-0.47v0.37h4.55H23h3.48v-0.37H26c-0.53,0-0.91-0.14-1.16-0.42c-0.19-0.2-0.27-0.71-0.27-1.54v-8.97l5.19,11.3h0.32l5.18-11.3   v8.97c0,0.76-0.08,1.23-0.22,1.44c-0.24,0.35-0.64,0.52-1.21,0.52h-0.48v0.37h3.59h2.12h8.24l1.16-3.37h-0.4   c-0.43,0.83-0.85,1.44-1.25,1.85c-0.32,0.31-0.65,0.52-1,0.62c-0.34,0.11-0.89,0.16-1.64,0.16H41.9c-0.38,0-0.62-0.04-0.76-0.11   c-0.13-0.07-0.23-0.18-0.27-0.31c-0.06-0.13-0.09-0.49-0.09-1.09v-4.43h2.96c0.56,0,0.98,0.06,1.25,0.2   c0.27,0.13,0.46,0.31,0.58,0.54c0.09,0.19,0.18,0.6,0.27,1.26h0.37v-4.67h-0.37c-0.04,0.76-0.23,1.3-0.57,1.61   c-0.26,0.23-0.77,0.34-1.53,0.34h-2.96v-5.31h3.69c0.67,0,1.13,0.05,1.39,0.15c0.34,0.13,0.58,0.34,0.76,0.6   c0.17,0.26,0.32,0.76,0.45,1.46h0.31l-0.69-2.94h-7.62H36.96z M23.7,45.65c0,0.76-0.08,1.23-0.22,1.44   c-0.22,0.31-0.58,0.48-1.07,0.51c-0.28-0.01-0.55-0.08-0.8-0.23c-0.21-0.12-0.35-0.27-0.42-0.43c-0.09-0.22-0.13-0.66-0.13-1.34   v-8.68c0-0.81,0.08-1.31,0.25-1.53c0.21-0.27,0.53-0.42,0.94-0.46c0.32,0.02,0.57,0.08,0.74,0.17c0.25,0.13,0.42,0.29,0.52,0.47   c0.13,0.27,0.2,0.69,0.2,1.29V45.65z M38.88,45.61c0,0.66-0.04,1.09-0.11,1.3c-0.08,0.21-0.23,0.37-0.44,0.47   c-0.11,0.06-0.23,0.1-0.35,0.14c-0.22-0.07-0.4-0.18-0.53-0.33c-0.19-0.2-0.28-0.71-0.28-1.54v-8.78c0-0.75,0.07-1.23,0.22-1.44   c0.15-0.22,0.38-0.36,0.66-0.44c0.24,0.07,0.43,0.17,0.57,0.32c0.17,0.2,0.26,0.72,0.26,1.58V45.61z"></path>
        <path class="st4" d="M60.11,38.09v0.35h-5.27v-0.35h0.43c0.52,0,0.89-0.14,1.11-0.44c0.14-0.18,0.21-0.65,0.21-1.4v-7.94   c0-0.63-0.04-1.04-0.12-1.23c-0.06-0.15-0.18-0.28-0.37-0.4c-0.27-0.15-0.54-0.22-0.84-0.22h-0.43v-0.33h5.27v0.33h-0.44   c-0.51,0-0.87,0.15-1.1,0.45c-0.15,0.18-0.22,0.65-0.22,1.39v7.94c0,0.62,0.03,1.04,0.12,1.24c0.06,0.15,0.18,0.28,0.37,0.38   c0.26,0.14,0.54,0.21,0.83,0.21H60.11z"></path>
        <path class="st4" d="M63.34,31.65c0.61-0.6,0.96-0.95,1.07-1.04c0.28-0.23,0.57-0.42,0.89-0.54c0.31-0.13,0.62-0.19,0.93-0.19   c0.52,0,0.97,0.15,1.34,0.45c0.38,0.31,0.63,0.75,0.75,1.32c0.62-0.72,1.15-1.2,1.58-1.43c0.43-0.23,0.87-0.34,1.32-0.34   c0.44,0,0.84,0.11,1.17,0.34c0.34,0.22,0.61,0.59,0.81,1.11c0.13,0.35,0.21,0.9,0.21,1.65v3.57c0,0.52,0.03,0.87,0.11,1.06   c0.06,0.14,0.18,0.25,0.33,0.35c0.16,0.09,0.43,0.14,0.8,0.14v0.33h-4.1v-0.33h0.17c0.36,0,0.64-0.07,0.84-0.21   c0.14-0.1,0.24-0.25,0.3-0.46c0.02-0.11,0.05-0.39,0.05-0.88v-3.57c0-0.68-0.09-1.16-0.25-1.43c-0.24-0.38-0.61-0.58-1.13-0.58   c-0.32,0-0.64,0.08-0.96,0.24c-0.32,0.16-0.72,0.46-1.17,0.89l-0.02,0.1l0.02,0.39v3.96c0,0.57,0.03,0.92,0.09,1.05   c0.06,0.14,0.19,0.26,0.36,0.36c0.17,0.09,0.48,0.14,0.9,0.14v0.33h-4.19v-0.33c0.46,0,0.77-0.05,0.95-0.16   c0.17-0.1,0.29-0.27,0.35-0.49c0.03-0.11,0.05-0.41,0.05-0.9v-3.57c0-0.68-0.1-1.17-0.3-1.46c-0.26-0.39-0.64-0.58-1.11-0.58   c-0.33,0-0.65,0.09-0.97,0.26c-0.5,0.27-0.89,0.57-1.16,0.9v4.45c0,0.54,0.04,0.9,0.11,1.05c0.08,0.17,0.19,0.3,0.35,0.37   c0.15,0.08,0.44,0.13,0.9,0.13v0.33h-4.11v-0.33c0.38,0,0.64-0.05,0.8-0.13c0.15-0.07,0.26-0.21,0.34-0.38   c0.08-0.18,0.12-0.53,0.12-1.04v-3.18c0-0.91-0.03-1.5-0.09-1.76c-0.04-0.21-0.11-0.34-0.2-0.42c-0.09-0.08-0.21-0.11-0.37-0.11   c-0.17,0-0.37,0.04-0.61,0.13l-0.13-0.32l2.5-1.02h0.39V31.65z"></path>
        <path class="st4" d="M77.69,31.65c0.6-0.6,0.96-0.95,1.07-1.04c0.27-0.23,0.57-0.42,0.87-0.54c0.32-0.13,0.63-0.19,0.94-0.19   c0.52,0,0.97,0.15,1.34,0.45c0.37,0.31,0.63,0.75,0.76,1.32c0.62-0.72,1.15-1.2,1.57-1.43c0.44-0.23,0.88-0.34,1.32-0.34   c0.45,0,0.84,0.11,1.18,0.34c0.34,0.22,0.61,0.59,0.81,1.11c0.13,0.35,0.2,0.9,0.2,1.65v3.57c0,0.52,0.04,0.87,0.12,1.06   c0.06,0.14,0.17,0.25,0.33,0.35c0.17,0.09,0.44,0.14,0.8,0.14v0.33H84.9v-0.33h0.18c0.35,0,0.63-0.07,0.82-0.21   c0.14-0.1,0.24-0.25,0.31-0.46c0.02-0.11,0.03-0.39,0.03-0.88v-3.57c0-0.68-0.08-1.16-0.24-1.43c-0.24-0.38-0.62-0.58-1.14-0.58   c-0.32,0-0.65,0.08-0.97,0.24c-0.33,0.16-0.71,0.46-1.18,0.89l-0.02,0.1l0.02,0.39v3.96c0,0.57,0.03,0.92,0.1,1.05   c0.07,0.14,0.18,0.26,0.36,0.36c0.18,0.09,0.47,0.14,0.9,0.14v0.33h-4.21v-0.33c0.46,0,0.79-0.05,0.96-0.16   c0.16-0.1,0.29-0.27,0.35-0.49c0.03-0.11,0.05-0.41,0.05-0.9v-3.57c0-0.68-0.1-1.17-0.3-1.46c-0.27-0.39-0.64-0.58-1.12-0.58   c-0.32,0-0.65,0.09-0.97,0.26c-0.51,0.27-0.89,0.57-1.16,0.9v4.45c0,0.54,0.04,0.9,0.11,1.05c0.08,0.17,0.19,0.3,0.33,0.37   c0.15,0.08,0.45,0.13,0.91,0.13v0.33h-4.11v-0.33c0.38,0,0.64-0.05,0.8-0.13c0.15-0.07,0.26-0.21,0.35-0.38   c0.08-0.18,0.11-0.53,0.11-1.04v-3.18c0-0.91-0.03-1.5-0.08-1.76c-0.04-0.21-0.11-0.34-0.2-0.42c-0.09-0.08-0.21-0.11-0.37-0.11   c-0.17,0-0.37,0.04-0.6,0.13l-0.14-0.32l2.5-1.02h0.39V31.65z"></path>
        <path class="st4" d="M92.22,29.89v6.67c0,0.52,0.04,0.87,0.11,1.04c0.08,0.16,0.2,0.3,0.34,0.38c0.15,0.09,0.42,0.13,0.81,0.13   v0.33h-4.03v-0.33c0.4,0,0.67-0.05,0.82-0.12c0.14-0.07,0.25-0.2,0.33-0.38c0.08-0.18,0.12-0.54,0.12-1.05v-3.2   c0-0.9-0.03-1.48-0.08-1.75c-0.04-0.2-0.11-0.33-0.2-0.4c-0.09-0.08-0.21-0.11-0.37-0.11c-0.17,0-0.37,0.04-0.61,0.13l-0.13-0.32   l2.5-1.02H92.22z M91.47,25.55c0.25,0,0.47,0.08,0.65,0.27c0.18,0.17,0.27,0.39,0.27,0.64c0,0.25-0.09,0.48-0.27,0.65   c-0.17,0.19-0.4,0.28-0.65,0.28c-0.25,0-0.47-0.09-0.65-0.28c-0.19-0.17-0.28-0.4-0.28-0.65c0-0.25,0.09-0.47,0.27-0.64   C90.99,25.63,91.21,25.55,91.47,25.55"></path>
        <path class="st4" d="M95.78,35.41c-0.51-0.25-0.9-0.6-1.17-1.04c-0.27-0.44-0.41-0.94-0.41-1.48c0-0.82,0.31-1.52,0.93-2.12   c0.61-0.59,1.41-0.89,2.38-0.89c0.79,0,1.47,0.19,2.06,0.58h1.76c0.25,0,0.41,0.01,0.46,0.03c0.04,0.02,0.07,0.04,0.09,0.07   c0.03,0.06,0.06,0.16,0.06,0.3c0,0.16-0.02,0.26-0.05,0.32c-0.02,0.02-0.05,0.05-0.09,0.07c-0.04,0.02-0.21,0.03-0.46,0.03h-1.08   c0.34,0.43,0.51,1,0.51,1.67c0,0.78-0.3,1.43-0.89,1.99c-0.59,0.55-1.39,0.82-2.39,0.82c-0.41,0-0.83-0.07-1.26-0.19   c-0.27,0.23-0.45,0.44-0.54,0.6c-0.09,0.18-0.14,0.32-0.14,0.45c0,0.11,0.05,0.2,0.14,0.3c0.1,0.09,0.3,0.17,0.59,0.21   c0.17,0.02,0.6,0.04,1.27,0.06c1.24,0.03,2.05,0.08,2.42,0.13c0.56,0.07,1.01,0.28,1.34,0.62c0.34,0.34,0.51,0.76,0.51,1.25   c0,0.69-0.33,1.33-0.97,1.93c-0.94,0.88-2.17,1.32-3.7,1.32c-1.17,0-2.14-0.26-2.95-0.78c-0.45-0.3-0.68-0.62-0.68-0.95   c0-0.14,0.03-0.29,0.09-0.43c0.1-0.23,0.32-0.55,0.64-0.94c0.04-0.05,0.35-0.37,0.93-0.98c-0.31-0.18-0.53-0.35-0.67-0.5   c-0.13-0.15-0.19-0.32-0.19-0.51c0-0.21,0.08-0.45,0.26-0.74C94.76,36.33,95.16,35.92,95.78,35.41 M95.69,38.44   c-0.28,0.31-0.5,0.59-0.64,0.86c-0.15,0.26-0.22,0.51-0.22,0.73c0,0.29,0.18,0.55,0.52,0.76c0.6,0.37,1.48,0.57,2.63,0.57   c1.08,0,1.89-0.2,2.41-0.58c0.51-0.38,0.77-0.8,0.77-1.22c0-0.32-0.15-0.54-0.46-0.68c-0.31-0.12-0.93-0.21-1.87-0.23   C97.46,38.61,96.42,38.54,95.69,38.44 M97.35,30.32c-0.44,0-0.82,0.18-1.12,0.54c-0.3,0.35-0.45,0.9-0.45,1.64   c0,0.96,0.21,1.7,0.62,2.22c0.32,0.4,0.71,0.6,1.19,0.6c0.46,0,0.84-0.17,1.14-0.52c0.3-0.35,0.44-0.88,0.44-1.62   c0-0.96-0.21-1.72-0.63-2.26C98.24,30.52,97.84,30.32,97.35,30.32"></path>
        <path class="st4" d="M105.12,29.89v1.87c0.7-1.25,1.41-1.87,2.14-1.87c0.34,0,0.61,0.1,0.83,0.3c0.23,0.2,0.33,0.43,0.33,0.71   c0,0.22-0.07,0.43-0.23,0.59c-0.16,0.16-0.34,0.24-0.56,0.24c-0.22,0-0.45-0.1-0.71-0.31c-0.26-0.21-0.46-0.31-0.58-0.31   c-0.11,0-0.23,0.06-0.36,0.18c-0.27,0.25-0.55,0.65-0.85,1.22v3.98c0,0.46,0.06,0.81,0.17,1.04c0.08,0.16,0.22,0.31,0.42,0.41   c0.2,0.11,0.49,0.16,0.87,0.16v0.33h-4.26v-0.33c0.42,0,0.73-0.07,0.95-0.2c0.15-0.1,0.25-0.26,0.31-0.46   c0.04-0.11,0.05-0.39,0.05-0.88v-3.22c0-0.97-0.01-1.55-0.06-1.73c-0.04-0.18-0.11-0.32-0.22-0.41c-0.11-0.08-0.24-0.12-0.4-0.12   c-0.19,0-0.39,0.04-0.63,0.13l-0.09-0.32l2.51-1.02H105.12z"></path>
        <path class="st4" d="M113.16,37.24c-0.85,0.65-1.39,1.03-1.6,1.14c-0.33,0.15-0.68,0.22-1.05,0.22c-0.58,0-1.05-0.2-1.42-0.6   c-0.38-0.39-0.56-0.9-0.56-1.54c0-0.41,0.09-0.76,0.27-1.05c0.25-0.42,0.68-0.8,1.3-1.17c0.61-0.36,1.63-0.8,3.06-1.33V32.6   c0-0.82-0.13-1.4-0.39-1.7c-0.26-0.31-0.64-0.46-1.15-0.46c-0.39,0-0.68,0.1-0.91,0.31c-0.23,0.21-0.34,0.44-0.34,0.7l0.02,0.53   c0,0.27-0.08,0.49-0.21,0.64c-0.14,0.15-0.33,0.22-0.56,0.22c-0.22,0-0.4-0.08-0.55-0.23c-0.14-0.16-0.21-0.37-0.21-0.64   c0-0.53,0.26-1,0.8-1.44c0.53-0.43,1.28-0.65,2.24-0.65c0.74,0,1.34,0.12,1.81,0.37c0.36,0.19,0.62,0.48,0.78,0.87   c0.11,0.26,0.17,0.79,0.17,1.6v2.82c0,0.79,0.01,1.28,0.05,1.46c0.03,0.17,0.08,0.29,0.15,0.35c0.07,0.06,0.15,0.09,0.24,0.09   c0.09,0,0.19-0.03,0.25-0.06c0.13-0.08,0.37-0.3,0.73-0.66v0.51c-0.68,0.9-1.33,1.35-1.94,1.35c-0.29,0-0.53-0.09-0.71-0.31   C113.26,38.08,113.16,37.73,113.16,37.24 M113.16,36.65v-3.17c-0.91,0.36-1.5,0.62-1.76,0.77c-0.49,0.27-0.82,0.55-1.03,0.84   c-0.21,0.29-0.32,0.61-0.32,0.95c0,0.44,0.14,0.8,0.4,1.09c0.26,0.28,0.56,0.43,0.9,0.43C111.81,37.55,112.42,37.26,113.16,36.65"></path>
        <path class="st4" d="M118.4,27.4v2.72h1.94v0.64h-1.94v5.38c0,0.55,0.07,0.91,0.22,1.1c0.16,0.18,0.35,0.28,0.6,0.28   c0.2,0,0.4-0.06,0.58-0.19c0.19-0.12,0.34-0.3,0.43-0.54h0.36c-0.22,0.59-0.51,1.03-0.9,1.33c-0.39,0.3-0.79,0.45-1.2,0.45   c-0.28,0-0.55-0.07-0.82-0.23c-0.26-0.15-0.46-0.38-0.59-0.66c-0.12-0.29-0.19-0.73-0.19-1.33v-5.59h-1.32v-0.3   c0.33-0.13,0.67-0.35,1.02-0.67c0.35-0.32,0.65-0.7,0.93-1.14c0.15-0.22,0.34-0.65,0.58-1.25H118.4z"></path>
        <path class="st4" d="M123.69,29.89v6.67c0,0.52,0.04,0.87,0.12,1.04c0.08,0.16,0.19,0.3,0.33,0.38c0.15,0.09,0.42,0.13,0.82,0.13   v0.33h-4.04v-0.33c0.41,0,0.68-0.05,0.82-0.12c0.14-0.07,0.25-0.2,0.33-0.38c0.08-0.18,0.12-0.54,0.12-1.05v-3.2   c0-0.9-0.02-1.48-0.07-1.75c-0.05-0.2-0.11-0.33-0.21-0.4c-0.09-0.08-0.22-0.11-0.37-0.11c-0.17,0-0.37,0.04-0.62,0.13l-0.12-0.32   l2.5-1.02H123.69z M122.94,25.55c0.25,0,0.47,0.08,0.65,0.27c0.17,0.17,0.27,0.39,0.27,0.64c0,0.25-0.09,0.48-0.27,0.65   c-0.18,0.19-0.4,0.28-0.65,0.28c-0.25,0-0.48-0.09-0.66-0.28c-0.17-0.17-0.27-0.4-0.27-0.65c0-0.25,0.1-0.47,0.27-0.64   C122.46,25.63,122.68,25.55,122.94,25.55"></path>
        <path class="st4" d="M129.12,29.89c1.26,0,2.27,0.47,3.02,1.43c0.65,0.81,0.97,1.75,0.97,2.81c0,0.74-0.18,1.5-0.53,2.26   c-0.37,0.76-0.85,1.34-1.47,1.72c-0.64,0.39-1.33,0.59-2.1,0.59c-1.26,0-2.24-0.51-2.99-1.5c-0.62-0.84-0.93-1.78-0.93-2.83   c0-0.75,0.19-1.52,0.57-2.27c0.38-0.75,0.88-1.31,1.49-1.67C127.78,30.07,128.43,29.89,129.12,29.89 M128.84,30.47   c-0.32,0-0.64,0.09-0.97,0.29c-0.32,0.19-0.58,0.53-0.78,1c-0.2,0.47-0.3,1.08-0.3,1.84c0,1.2,0.24,2.24,0.72,3.12   c0.48,0.87,1.12,1.31,1.9,1.31c0.59,0,1.07-0.24,1.45-0.72c0.39-0.49,0.57-1.32,0.57-2.5c0-1.47-0.31-2.63-0.96-3.48   C130.06,30.76,129.5,30.47,128.84,30.47"></path>
        <path class="st4" d="M136.07,31.65c0.97-1.17,1.9-1.76,2.78-1.76c0.45,0,0.84,0.11,1.17,0.34c0.33,0.22,0.59,0.6,0.78,1.12   c0.13,0.36,0.2,0.92,0.2,1.67v3.54c0,0.52,0.05,0.89,0.12,1.06c0.07,0.16,0.18,0.28,0.33,0.36c0.14,0.09,0.42,0.13,0.82,0.13v0.33   h-4.11v-0.33h0.18c0.38,0,0.66-0.06,0.81-0.18c0.15-0.12,0.26-0.29,0.32-0.52c0.03-0.08,0.03-0.37,0.03-0.85v-3.4   c0-0.76-0.1-1.31-0.3-1.65c-0.2-0.34-0.52-0.51-0.99-0.51c-0.71,0-1.43,0.4-2.14,1.18v4.38c0,0.57,0.03,0.91,0.1,1.05   c0.07,0.17,0.2,0.3,0.35,0.38c0.14,0.08,0.45,0.13,0.9,0.13v0.33h-4.11v-0.33h0.19c0.41,0,0.7-0.11,0.85-0.32   c0.14-0.21,0.22-0.63,0.22-1.23v-3.08c0-1-0.03-1.6-0.07-1.82c-0.06-0.21-0.13-0.36-0.22-0.45c-0.09-0.08-0.22-0.11-0.38-0.11   c-0.17,0-0.37,0.04-0.6,0.13l-0.13-0.32l2.5-1.02h0.39V31.65z"></path>
        <path class="st4" d="M61.03,53.53l-4.16-9.06v7.19c0,0.67,0.08,1.08,0.22,1.24c0.2,0.22,0.51,0.33,0.93,0.33h0.38v0.3h-3.75v-0.3   h0.38c0.46,0,0.78-0.14,0.97-0.42c0.12-0.17,0.18-0.55,0.18-1.15v-7.03c0-0.48-0.06-0.82-0.16-1.03c-0.07-0.15-0.21-0.28-0.41-0.38   c-0.2-0.11-0.51-0.16-0.96-0.16v-0.29h3.05l3.9,8.41l3.84-8.41h3.04v0.29h-0.38c-0.45,0-0.78,0.15-0.97,0.41   c-0.12,0.17-0.18,0.55-0.18,1.16v7.03c0,0.67,0.08,1.08,0.23,1.24c0.19,0.22,0.5,0.33,0.92,0.33h0.38v0.3h-4.57v-0.3h0.38   c0.46,0,0.78-0.14,0.97-0.42c0.11-0.17,0.17-0.55,0.17-1.15v-7.19l-4.16,9.06H61.03z"></path>
        <path class="st4" d="M69.79,49c0,1.07,0.25,1.93,0.79,2.54c0.53,0.62,1.15,0.92,1.86,0.92c0.48,0,0.89-0.13,1.24-0.39   c0.36-0.27,0.65-0.71,0.89-1.35l0.24,0.17c-0.12,0.72-0.44,1.39-0.97,1.98c-0.53,0.59-1.2,0.89-2,0.89c-0.87,0-1.62-0.34-2.24-1.03   c-0.63-0.67-0.93-1.59-0.93-2.73c0-1.25,0.32-2.22,0.95-2.91c0.64-0.69,1.44-1.05,2.4-1.05c0.82,0,1.49,0.27,2.01,0.81   c0.53,0.54,0.79,1.26,0.79,2.16H69.79z M69.79,48.54h3.37c-0.03-0.47-0.08-0.8-0.17-0.98c-0.13-0.3-0.33-0.53-0.59-0.7   c-0.27-0.17-0.54-0.25-0.82-0.25c-0.45,0-0.84,0.17-1.19,0.51C70.05,47.45,69.86,47.92,69.79,48.54"></path>
        <path class="st4" d="M80.49,52.71c-0.36,0.37-0.7,0.64-1.04,0.8c-0.34,0.16-0.7,0.24-1.1,0.24c-0.79,0-1.48-0.34-2.07-0.99   c-0.6-0.67-0.89-1.53-0.89-2.56s0.33-1.99,0.98-2.86c0.66-0.87,1.5-1.3,2.53-1.3c0.64,0,1.17,0.21,1.58,0.62V45.3   c0-0.83-0.02-1.33-0.07-1.53c-0.03-0.19-0.09-0.32-0.18-0.39c-0.09-0.07-0.19-0.1-0.32-0.1c-0.14,0-0.32,0.04-0.54,0.13l-0.11-0.28   l2.17-0.89h0.35v8.4c0,0.85,0.02,1.37,0.06,1.57c0.04,0.19,0.1,0.32,0.19,0.39c0.09,0.08,0.19,0.11,0.31,0.11   c0.14,0,0.34-0.04,0.58-0.13l0.09,0.27l-2.16,0.9h-0.36V52.71z M80.49,52.16v-3.75c-0.03-0.36-0.12-0.69-0.29-0.99   c-0.15-0.29-0.37-0.51-0.63-0.66c-0.26-0.15-0.52-0.23-0.77-0.23c-0.47,0-0.88,0.21-1.25,0.62c-0.48,0.56-0.72,1.36-0.72,2.42   c0,1.06,0.23,1.88,0.7,2.46c0.46,0.57,0.98,0.85,1.55,0.85C79.58,52.88,80.04,52.64,80.49,52.16"></path>
        <path class="st4" d="M85.68,46.05v5.84c0,0.45,0.03,0.75,0.1,0.91c0.06,0.14,0.16,0.26,0.29,0.34c0.13,0.07,0.37,0.11,0.72,0.11   v0.29h-3.54v-0.29c0.36,0,0.59-0.03,0.71-0.1c0.13-0.07,0.22-0.18,0.29-0.34c0.07-0.16,0.11-0.46,0.11-0.91v-2.8   c0-0.79-0.03-1.31-0.07-1.54c-0.03-0.17-0.1-0.29-0.18-0.35c-0.07-0.07-0.17-0.11-0.32-0.11s-0.32,0.04-0.54,0.12l-0.11-0.28   l2.19-0.89H85.68z M85.02,42.24c0.22,0,0.42,0.08,0.57,0.24c0.16,0.16,0.24,0.34,0.24,0.57c0,0.22-0.08,0.42-0.24,0.57   c-0.15,0.16-0.35,0.24-0.57,0.24c-0.22,0-0.41-0.08-0.57-0.24c-0.16-0.15-0.23-0.35-0.23-0.57c0-0.22,0.07-0.41,0.23-0.57   C84.61,42.32,84.8,42.24,85.02,42.24"></path>
        <path class="st4" d="M93.12,50.77c-0.2,0.95-0.58,1.7-1.16,2.21c-0.57,0.52-1.2,0.78-1.9,0.78c-0.82,0-1.54-0.35-2.15-1.04   c-0.62-0.69-0.92-1.63-0.92-2.8c0-1.14,0.34-2.07,1.02-2.79c0.68-0.71,1.5-1.06,2.45-1.06c0.71,0,1.29,0.19,1.76,0.57   c0.46,0.38,0.68,0.77,0.68,1.17c0,0.2-0.06,0.37-0.19,0.49c-0.13,0.13-0.31,0.2-0.54,0.2c-0.32,0-0.55-0.1-0.71-0.3   c-0.09-0.12-0.15-0.33-0.18-0.64c-0.02-0.32-0.13-0.54-0.32-0.72c-0.18-0.15-0.44-0.23-0.76-0.23c-0.53,0-0.95,0.19-1.28,0.58   c-0.43,0.52-0.65,1.21-0.65,2.06c0,0.87,0.22,1.64,0.65,2.3c0.42,0.66,0.99,0.99,1.72,0.99c0.53,0,0.99-0.17,1.4-0.53   c0.29-0.24,0.58-0.69,0.85-1.33L93.12,50.77z"></path>
        <path class="st4" d="M97.74,52.48c-0.74,0.58-1.21,0.91-1.39,1c-0.29,0.13-0.6,0.2-0.93,0.2c-0.5,0-0.91-0.17-1.24-0.52   c-0.32-0.35-0.49-0.79-0.49-1.35c0-0.36,0.07-0.66,0.23-0.92c0.22-0.36,0.6-0.71,1.13-1.03c0.54-0.31,1.43-0.7,2.67-1.15v-0.29   c0-0.73-0.11-1.22-0.35-1.49c-0.23-0.27-0.56-0.41-1-0.41c-0.33,0-0.6,0.09-0.79,0.28c-0.21,0.18-0.3,0.38-0.3,0.61l0.01,0.47   c0,0.24-0.06,0.43-0.18,0.57c-0.13,0.13-0.29,0.19-0.5,0.19c-0.19,0-0.35-0.07-0.47-0.21c-0.13-0.13-0.19-0.32-0.19-0.56   c0-0.46,0.24-0.87,0.71-1.25c0.46-0.38,1.12-0.57,1.96-0.57c0.64,0,1.17,0.11,1.58,0.32c0.31,0.17,0.54,0.42,0.69,0.77   c0.09,0.23,0.14,0.69,0.14,1.4v2.47c0,0.69,0.01,1.12,0.04,1.27c0.02,0.16,0.08,0.26,0.13,0.31c0.06,0.06,0.13,0.08,0.21,0.08   c0.08,0,0.16-0.02,0.22-0.06c0.11-0.07,0.33-0.26,0.65-0.58v0.44c-0.59,0.8-1.16,1.19-1.7,1.19c-0.26,0-0.46-0.08-0.61-0.27   C97.82,53.22,97.74,52.91,97.74,52.48 M97.74,51.97V49.2c-0.79,0.31-1.32,0.54-1.54,0.67c-0.42,0.24-0.72,0.49-0.9,0.74   c-0.18,0.26-0.27,0.53-0.27,0.83c0,0.38,0.12,0.7,0.34,0.95c0.23,0.25,0.49,0.38,0.79,0.38C96.55,52.76,97.08,52.49,97.74,51.97"></path>
        <path class="st4" d="M102.84,42.24v9.65c0,0.45,0.04,0.75,0.1,0.9c0.07,0.14,0.17,0.25,0.3,0.34c0.14,0.08,0.39,0.11,0.78,0.11   v0.29h-3.57v-0.29c0.33,0,0.56-0.03,0.68-0.1c0.12-0.07,0.22-0.18,0.29-0.34c0.07-0.16,0.1-0.46,0.1-0.91v-6.61   c0-0.82-0.02-1.33-0.06-1.51c-0.03-0.2-0.09-0.32-0.17-0.39c-0.08-0.07-0.18-0.1-0.31-0.1c-0.14,0-0.31,0.04-0.53,0.13l-0.13-0.28   l2.16-0.89H102.84z"></path>
        <path class="st4" d="M111,43.35v4.26h2.37c0.61,0,1.02-0.09,1.23-0.28c0.27-0.25,0.43-0.67,0.46-1.28h0.3v3.74h-0.3   c-0.07-0.52-0.15-0.86-0.23-1c-0.09-0.19-0.24-0.33-0.46-0.44c-0.22-0.1-0.55-0.15-1-0.15H111v3.54c0,0.48,0.02,0.76,0.05,0.87   c0.05,0.1,0.12,0.19,0.23,0.24c0.11,0.06,0.31,0.09,0.61,0.09h1.82c0.61,0,1.04-0.04,1.33-0.12c0.28-0.09,0.54-0.25,0.79-0.5   c0.33-0.33,0.67-0.82,1-1.48h0.32l-0.93,2.7h-8.3v-0.3h0.38c0.25,0,0.49-0.06,0.72-0.19c0.16-0.08,0.28-0.21,0.34-0.37   c0.06-0.17,0.09-0.52,0.09-1.04v-6.99c0-0.68-0.07-1.11-0.2-1.26c-0.18-0.21-0.5-0.31-0.95-0.31h-0.38v-0.29h8.3l0.12,2.35h-0.31   c-0.11-0.57-0.24-0.96-0.38-1.17c-0.13-0.21-0.33-0.37-0.6-0.48c-0.21-0.08-0.59-0.12-1.12-0.12H111z"></path>
        <path class="st4" d="M117.14,46.26h3.42v0.29c-0.21,0-0.36,0.04-0.46,0.11c-0.08,0.07-0.13,0.17-0.13,0.29   c0,0.13,0.1,0.33,0.28,0.59c0.06,0.08,0.14,0.22,0.27,0.39l0.51,0.83l0.6-0.83c0.38-0.53,0.58-0.85,0.58-0.99   c0-0.11-0.05-0.2-0.14-0.28c-0.09-0.07-0.24-0.12-0.44-0.12v-0.29h2.46v0.29c-0.26,0.02-0.48,0.1-0.67,0.21   c-0.25,0.18-0.61,0.57-1.06,1.17l-0.99,1.33l1.81,2.6c0.45,0.63,0.76,1.02,0.95,1.15c0.2,0.13,0.43,0.21,0.75,0.22v0.29h-3.43   v-0.29c0.24,0,0.43-0.05,0.56-0.16c0.1-0.07,0.15-0.17,0.15-0.29c0-0.12-0.17-0.43-0.51-0.92l-1.06-1.56l-1.16,1.56   c-0.36,0.48-0.55,0.77-0.55,0.85c0,0.13,0.06,0.25,0.19,0.35c0.13,0.1,0.3,0.16,0.54,0.17v0.29h-2.37v-0.29   c0.19-0.02,0.36-0.09,0.5-0.2c0.2-0.15,0.55-0.54,1.02-1.16l1.52-2.03l-1.38-2c-0.39-0.57-0.69-0.93-0.91-1.07   c-0.21-0.15-0.48-0.22-0.8-0.22V46.26z"></path>
        <path class="st4" d="M129.16,52.48c-0.74,0.58-1.21,0.91-1.41,1c-0.28,0.13-0.59,0.2-0.91,0.2c-0.5,0-0.91-0.17-1.24-0.52   c-0.33-0.35-0.49-0.79-0.49-1.35c0-0.36,0.08-0.66,0.24-0.92c0.21-0.36,0.59-0.71,1.13-1.03c0.54-0.31,1.43-0.7,2.68-1.15v-0.29   c0-0.73-0.11-1.22-0.35-1.49c-0.24-0.27-0.56-0.41-1-0.41c-0.33,0-0.6,0.09-0.79,0.28c-0.2,0.18-0.3,0.38-0.3,0.61l0.01,0.47   c0,0.24-0.05,0.43-0.17,0.57c-0.13,0.13-0.29,0.19-0.49,0.19c-0.19,0-0.36-0.07-0.48-0.21c-0.13-0.13-0.18-0.32-0.18-0.56   c0-0.46,0.23-0.87,0.69-1.25c0.47-0.38,1.12-0.57,1.96-0.57c0.64,0,1.17,0.11,1.59,0.32c0.31,0.17,0.53,0.42,0.69,0.77   c0.09,0.23,0.14,0.69,0.14,1.4v2.47c0,0.69,0.02,1.12,0.04,1.27c0.02,0.16,0.07,0.26,0.14,0.31c0.05,0.06,0.13,0.08,0.21,0.08   c0.08,0,0.16-0.02,0.22-0.06c0.11-0.07,0.32-0.26,0.65-0.58v0.44c-0.59,0.8-1.16,1.19-1.71,1.19c-0.26,0-0.46-0.08-0.62-0.27   C129.24,53.22,129.17,52.91,129.16,52.48 M129.16,51.97V49.2c-0.8,0.31-1.31,0.54-1.54,0.67c-0.42,0.24-0.72,0.49-0.9,0.74   c-0.18,0.26-0.27,0.53-0.27,0.83c0,0.38,0.11,0.7,0.35,0.95c0.23,0.25,0.49,0.38,0.78,0.38C127.98,52.76,128.5,52.49,129.16,51.97"></path>
        <path class="st4" d="M134.11,47.59c0.53-0.52,0.84-0.83,0.93-0.91c0.24-0.2,0.5-0.36,0.77-0.47c0.27-0.11,0.54-0.17,0.82-0.17   c0.45,0,0.84,0.14,1.17,0.4c0.33,0.26,0.55,0.64,0.66,1.14c0.54-0.64,1-1.05,1.38-1.25c0.37-0.2,0.76-0.3,1.16-0.3   c0.39,0,0.73,0.1,1.03,0.3c0.3,0.2,0.54,0.52,0.71,0.97c0.11,0.3,0.17,0.79,0.17,1.44v3.13c0,0.45,0.03,0.76,0.1,0.93   c0.05,0.12,0.15,0.22,0.29,0.3c0.14,0.08,0.38,0.12,0.7,0.12v0.29h-3.59v-0.29h0.15c0.31,0,0.55-0.06,0.73-0.18   c0.12-0.09,0.21-0.22,0.26-0.4c0.02-0.09,0.03-0.36,0.03-0.77v-3.13c0-0.59-0.07-1.01-0.22-1.25c-0.2-0.35-0.53-0.51-0.98-0.51   c-0.29,0-0.57,0.07-0.85,0.2c-0.28,0.14-0.62,0.41-1.02,0.79l-0.02,0.09l0.02,0.33v3.48c0,0.5,0.03,0.8,0.08,0.92   c0.06,0.12,0.16,0.22,0.32,0.31c0.15,0.08,0.41,0.12,0.79,0.12v0.29h-3.68v-0.29c0.41,0,0.68-0.05,0.84-0.14   c0.15-0.1,0.25-0.24,0.31-0.42c0.03-0.09,0.04-0.36,0.04-0.79v-3.13c0-0.59-0.09-1.02-0.26-1.28c-0.24-0.34-0.56-0.5-0.98-0.5   c-0.28,0-0.56,0.08-0.85,0.23c-0.43,0.24-0.77,0.49-1.02,0.79v3.9c0,0.47,0.03,0.79,0.1,0.92c0.06,0.15,0.16,0.25,0.3,0.32   c0.13,0.07,0.39,0.1,0.78,0.1v0.29h-3.59v-0.29c0.33,0,0.56-0.03,0.69-0.1c0.13-0.07,0.24-0.19,0.31-0.34   c0.06-0.16,0.09-0.46,0.09-0.91v-2.78c0-0.8-0.02-1.32-0.06-1.55c-0.04-0.17-0.09-0.29-0.17-0.35c-0.09-0.07-0.2-0.1-0.33-0.1   c-0.15,0-0.32,0.04-0.53,0.12l-0.12-0.28l2.19-0.89h0.34V47.59z"></path>
        <path class="st4" d="M148.93,46.05v2.48h-0.27c-0.2-0.79-0.46-1.31-0.77-1.59c-0.32-0.28-0.71-0.42-1.2-0.42   c-0.37,0-0.67,0.1-0.9,0.29c-0.23,0.2-0.34,0.41-0.34,0.65c0,0.3,0.09,0.56,0.25,0.77c0.16,0.22,0.5,0.45,1,0.68l1.15,0.57   c1.08,0.53,1.61,1.21,1.61,2.07c0,0.67-0.25,1.2-0.75,1.6c-0.51,0.4-1.06,0.61-1.68,0.61c-0.44,0-0.95-0.08-1.52-0.24   c-0.17-0.05-0.31-0.08-0.43-0.08c-0.12,0-0.21,0.07-0.28,0.2h-0.26v-2.59h0.26c0.15,0.74,0.43,1.3,0.85,1.67   c0.42,0.38,0.88,0.57,1.4,0.57c0.36,0,0.66-0.11,0.89-0.32c0.23-0.21,0.35-0.47,0.35-0.78c0-0.37-0.13-0.67-0.39-0.92   c-0.26-0.25-0.77-0.57-1.54-0.95c-0.77-0.37-1.27-0.72-1.5-1.03c-0.24-0.3-0.36-0.69-0.36-1.14c0-0.6,0.2-1.1,0.62-1.5   c0.41-0.4,0.94-0.6,1.58-0.6c0.29,0,0.64,0.06,1.04,0.18c0.27,0.08,0.45,0.12,0.55,0.12c0.08,0,0.14-0.02,0.19-0.06   c0.05-0.03,0.1-0.11,0.16-0.24H148.93z"></path>
        <path class="st5" d="M55.72,59.22h1.94c0.5,0,0.88,0.11,1.13,0.33c0.26,0.23,0.38,0.49,0.38,0.8c0,0.25-0.08,0.49-0.23,0.72   c-0.16,0.23-0.4,0.43-0.72,0.57c-0.31,0.15-0.65,0.22-1.02,0.22c-0.22,0-0.5-0.04-0.86-0.13l-0.39,1.34   c-0.1,0.32-0.14,0.53-0.14,0.63c0,0.08,0.04,0.14,0.1,0.2c0.07,0.04,0.22,0.08,0.47,0.09l-0.04,0.13h-1.95L54.43,64   c0.25,0,0.43-0.05,0.54-0.13c0.09-0.09,0.2-0.33,0.32-0.74l0.81-2.79c0.1-0.33,0.15-0.56,0.15-0.67c0-0.09-0.04-0.16-0.1-0.22   c-0.07-0.06-0.22-0.08-0.45-0.1L55.72,59.22z M56.4,61.51c0.27,0.07,0.49,0.1,0.66,0.1c0.26,0,0.5-0.06,0.72-0.17   c0.22-0.11,0.38-0.27,0.5-0.48c0.13-0.22,0.18-0.45,0.18-0.67c0-0.25-0.08-0.44-0.22-0.58c-0.15-0.15-0.38-0.22-0.68-0.22   c-0.17,0-0.37,0.02-0.6,0.07L56.4,61.51z"></path>
        <path class="st5" d="M62.22,61.99c0,0.37-0.09,0.72-0.29,1.07c-0.19,0.36-0.46,0.63-0.8,0.85c-0.34,0.21-0.67,0.31-0.99,0.31   c-0.33,0-0.6-0.1-0.82-0.32C59.11,63.69,59,63.42,59,63.08c0-0.35,0.1-0.71,0.3-1.07c0.21-0.36,0.48-0.65,0.83-0.85   c0.34-0.2,0.67-0.31,0.98-0.31c0.32,0,0.59,0.1,0.79,0.31C62.11,61.38,62.22,61.65,62.22,61.99 M61.62,61.73   c0-0.22-0.06-0.39-0.17-0.51c-0.11-0.12-0.25-0.18-0.43-0.18c-0.35,0-0.67,0.25-0.98,0.77c-0.3,0.51-0.44,1.01-0.44,1.51   c0,0.23,0.06,0.41,0.17,0.53c0.12,0.13,0.26,0.19,0.44,0.19c0.34,0,0.66-0.26,0.96-0.77C61.47,62.77,61.62,62.26,61.62,61.73"></path>
        <path class="st5" d="M65.42,60.86l0.25,2.72c0.42-0.5,0.76-0.96,1.01-1.39c0.14-0.25,0.22-0.43,0.22-0.55   c0-0.05-0.02-0.09-0.04-0.13c-0.01-0.02-0.05-0.06-0.11-0.1c-0.07-0.04-0.11-0.09-0.14-0.13c-0.03-0.05-0.05-0.1-0.05-0.14   c0-0.09,0.03-0.14,0.08-0.19c0.06-0.05,0.13-0.08,0.21-0.08c0.1,0,0.18,0.04,0.25,0.11c0.07,0.07,0.11,0.17,0.11,0.3   c0,0.12-0.01,0.24-0.06,0.35c-0.07,0.21-0.21,0.47-0.42,0.8c-0.26,0.39-0.52,0.75-0.79,1.1c-0.28,0.34-0.47,0.57-0.61,0.71h-0.14   l-0.23-2.51l-1.5,2.51h-0.16c-0.02-1.03-0.07-1.85-0.16-2.44c-0.03-0.25-0.09-0.42-0.17-0.5c-0.06-0.05-0.15-0.08-0.28-0.08   c-0.07,0-0.16,0.01-0.26,0.02v-0.14l1.03-0.24c0.14,0.4,0.24,1.02,0.29,1.86c0.01,0.31,0.02,0.5,0.03,0.59l1.49-2.45H65.42z"></path>
        <path class="st5" d="M67.94,62.77c-0.01,0.12-0.03,0.22-0.03,0.3c0,0.22,0.08,0.4,0.23,0.55c0.15,0.15,0.34,0.22,0.55,0.22   c0.18,0,0.35-0.03,0.51-0.11c0.16-0.07,0.4-0.22,0.71-0.47l0.08,0.1c-0.57,0.57-1.12,0.86-1.64,0.86c-0.36,0-0.62-0.11-0.79-0.33   c-0.18-0.22-0.27-0.47-0.27-0.74c0-0.36,0.11-0.73,0.33-1.1c0.22-0.37,0.5-0.67,0.84-0.88c0.34-0.21,0.68-0.31,1.03-0.31   c0.26,0,0.45,0.05,0.56,0.15c0.13,0.1,0.19,0.23,0.19,0.37c0,0.2-0.08,0.39-0.24,0.58c-0.21,0.24-0.52,0.44-0.93,0.58   C68.81,62.63,68.43,62.71,67.94,62.77 M67.97,62.59c0.35-0.04,0.65-0.12,0.87-0.21c0.3-0.13,0.53-0.29,0.67-0.47   c0.15-0.18,0.23-0.35,0.23-0.53c0-0.1-0.03-0.18-0.1-0.24c-0.06-0.07-0.16-0.1-0.27-0.1c-0.25,0-0.5,0.13-0.79,0.4   C68.3,61.69,68.1,62.08,67.97,62.59"></path>
        <path class="st5" d="M70.64,61.05l1.24-0.19l-0.5,1.76c0.41-0.73,0.8-1.23,1.14-1.51c0.19-0.16,0.36-0.24,0.48-0.24   c0.09,0,0.14,0.03,0.19,0.07c0.05,0.04,0.06,0.11,0.06,0.21c0,0.15-0.04,0.3-0.12,0.45c-0.06,0.11-0.14,0.17-0.25,0.17   c-0.05,0-0.1-0.03-0.14-0.06c-0.04-0.04-0.06-0.09-0.07-0.17c-0.01-0.05-0.01-0.08-0.03-0.09c-0.02-0.03-0.04-0.03-0.07-0.03   c-0.04,0-0.08,0.01-0.12,0.03c-0.05,0.04-0.16,0.13-0.28,0.29c-0.2,0.23-0.42,0.54-0.65,0.91c-0.11,0.16-0.18,0.35-0.26,0.54   c-0.1,0.28-0.16,0.44-0.17,0.49l-0.12,0.45H70.4l0.67-2.25c0.08-0.26,0.12-0.44,0.12-0.55c0-0.05-0.02-0.08-0.06-0.11   c-0.05-0.04-0.11-0.06-0.19-0.06c-0.05,0-0.15,0.01-0.29,0.04L70.64,61.05z"></path>
        <path class="st5" d="M73.84,62.77c-0.02,0.12-0.03,0.22-0.03,0.3c0,0.22,0.08,0.4,0.22,0.55c0.15,0.15,0.33,0.22,0.56,0.22   c0.17,0,0.34-0.03,0.5-0.11c0.16-0.07,0.4-0.22,0.71-0.47l0.08,0.1c-0.58,0.57-1.12,0.86-1.64,0.86c-0.35,0-0.62-0.11-0.79-0.33   c-0.17-0.22-0.27-0.47-0.27-0.74c0-0.36,0.11-0.73,0.33-1.1c0.22-0.37,0.51-0.67,0.84-0.88c0.33-0.21,0.68-0.31,1.03-0.31   c0.25,0,0.45,0.05,0.57,0.15c0.12,0.1,0.19,0.23,0.19,0.37c0,0.2-0.08,0.39-0.24,0.58c-0.21,0.24-0.52,0.44-0.92,0.58   C74.71,62.63,74.33,62.71,73.84,62.77 M73.87,62.59c0.36-0.04,0.64-0.12,0.87-0.21c0.3-0.13,0.52-0.29,0.67-0.47   c0.15-0.18,0.22-0.35,0.22-0.53c0-0.1-0.03-0.18-0.09-0.24c-0.06-0.07-0.15-0.1-0.28-0.1c-0.24,0-0.51,0.13-0.78,0.4   C74.2,61.69,74,62.08,73.87,62.59"></path>
        <path class="st5" d="M80.17,58.98l-1.24,4.27c-0.07,0.23-0.11,0.39-0.11,0.45c0,0.03,0.01,0.05,0.03,0.07   c0.02,0.02,0.05,0.03,0.07,0.03c0.02,0,0.06-0.02,0.11-0.04c0.08-0.06,0.22-0.21,0.42-0.44l0.12,0.08   c-0.17,0.24-0.34,0.43-0.52,0.58c-0.18,0.15-0.35,0.23-0.5,0.23c-0.09,0-0.15-0.03-0.2-0.09c-0.05-0.05-0.08-0.13-0.08-0.24   c0-0.15,0.04-0.33,0.11-0.56l0.14-0.45c-0.35,0.54-0.67,0.92-0.95,1.13c-0.2,0.14-0.39,0.21-0.57,0.21c-0.18,0-0.35-0.08-0.48-0.24   c-0.14-0.17-0.21-0.38-0.21-0.67c0-0.36,0.12-0.75,0.35-1.15c0.23-0.41,0.53-0.75,0.91-1c0.3-0.2,0.57-0.3,0.81-0.3   c0.14,0,0.25,0.03,0.34,0.08c0.1,0.06,0.19,0.14,0.28,0.26l0.36-1.26c0.02-0.08,0.04-0.15,0.06-0.21c0.03-0.09,0.05-0.17,0.05-0.24   c0-0.05-0.02-0.1-0.05-0.12c-0.05-0.05-0.12-0.07-0.2-0.07c-0.05,0-0.15,0.01-0.27,0.02v-0.13L80.17,58.98z M78.82,61.56   c0-0.16-0.04-0.28-0.13-0.38c-0.09-0.09-0.21-0.14-0.35-0.14c-0.3,0-0.61,0.25-0.94,0.75c-0.33,0.5-0.5,0.97-0.5,1.44   c0,0.18,0.04,0.32,0.12,0.42c0.08,0.09,0.18,0.14,0.29,0.14c0.25,0,0.57-0.27,0.94-0.81C78.64,62.43,78.82,61.96,78.82,61.56"></path>
        <path class="st5" d="M83.49,58.98l-0.71,2.51c0.23-0.24,0.43-0.41,0.6-0.5c0.16-0.09,0.35-0.13,0.54-0.13   c0.27,0,0.48,0.08,0.65,0.26c0.17,0.18,0.25,0.43,0.25,0.72c0,0.39-0.11,0.78-0.33,1.16c-0.22,0.38-0.5,0.68-0.84,0.9   c-0.33,0.21-0.66,0.32-0.98,0.32c-0.37,0-0.75-0.14-1.12-0.41l1.09-3.79c0.09-0.3,0.13-0.46,0.13-0.52c0-0.06-0.02-0.11-0.06-0.14   c-0.06-0.05-0.13-0.07-0.24-0.07c-0.05,0-0.13,0.02-0.23,0.03v-0.13L83.49,58.98z M82.09,63.85c0.24,0.13,0.45,0.2,0.64,0.2   c0.21,0,0.43-0.08,0.66-0.24c0.23-0.15,0.43-0.41,0.58-0.78c0.18-0.37,0.26-0.74,0.26-1.12c0-0.22-0.06-0.4-0.17-0.53   c-0.11-0.12-0.24-0.19-0.39-0.19c-0.23,0-0.45,0.09-0.66,0.28c-0.22,0.18-0.37,0.43-0.46,0.74L82.09,63.85z"></path>
        <path class="st5" d="M86.13,60.86c0.08,0.14,0.14,0.27,0.17,0.39c0.03,0.12,0.06,0.36,0.1,0.72l0.16,1.78   c0.14-0.17,0.36-0.45,0.63-0.82c0.13-0.18,0.3-0.43,0.48-0.74c0.12-0.2,0.2-0.34,0.22-0.41c0.01-0.04,0.03-0.08,0.03-0.12   c0-0.03-0.01-0.05-0.03-0.07c-0.01-0.01-0.06-0.03-0.13-0.06c-0.07-0.02-0.13-0.06-0.18-0.13c-0.05-0.06-0.07-0.13-0.07-0.21   c0-0.1,0.02-0.18,0.09-0.24c0.06-0.06,0.13-0.09,0.21-0.09c0.11,0,0.19,0.05,0.27,0.13c0.07,0.08,0.11,0.21,0.11,0.36   c0,0.2-0.07,0.41-0.2,0.65c-0.12,0.25-0.37,0.62-0.75,1.13c-0.37,0.51-0.83,1.06-1.35,1.67c-0.36,0.41-0.63,0.67-0.81,0.78   c-0.18,0.11-0.33,0.16-0.46,0.16c-0.08,0-0.14-0.03-0.2-0.09c-0.06-0.05-0.08-0.12-0.08-0.2c0-0.08,0.03-0.17,0.12-0.25   c0.07-0.07,0.16-0.12,0.25-0.12c0.05,0,0.09,0.02,0.12,0.04c0.01,0.01,0.03,0.04,0.06,0.09c0.02,0.06,0.05,0.1,0.07,0.12   c0.01,0.01,0.03,0.02,0.04,0.02c0.01,0,0.04-0.01,0.08-0.03c0.13-0.09,0.28-0.21,0.46-0.4c0.23-0.23,0.4-0.43,0.51-0.58l-0.2-2.29   c-0.04-0.38-0.1-0.61-0.16-0.69c-0.07-0.08-0.18-0.12-0.34-0.12c-0.05,0-0.14,0.01-0.26,0.02l-0.04-0.14L86.13,60.86z"></path>
        <path class="st6" d="M90.53,60.95c0,0.71,0.17,1.27,0.52,1.68c0.34,0.4,0.76,0.6,1.23,0.6c0.31,0,0.58-0.08,0.81-0.25   c0.24-0.18,0.43-0.47,0.58-0.89l0.16,0.11c-0.07,0.48-0.28,0.91-0.63,1.3c-0.35,0.4-0.79,0.59-1.32,0.59   c-0.57,0-1.07-0.23-1.47-0.67c-0.41-0.45-0.62-1.05-0.62-1.81c0-0.82,0.21-1.46,0.64-1.91C90.84,59.23,91.37,59,92,59   c0.54,0,0.98,0.18,1.32,0.54c0.34,0.35,0.51,0.82,0.51,1.41H90.53z M90.53,60.65h2.22c-0.03-0.3-0.06-0.52-0.11-0.64   c-0.09-0.2-0.22-0.35-0.39-0.45c-0.17-0.12-0.35-0.18-0.54-0.18c-0.29,0-0.55,0.12-0.78,0.34C90.7,59.94,90.57,60.24,90.53,60.65"></path>
        <path class="st6" d="M97.2,59v1.64h-0.17c-0.14-0.52-0.3-0.86-0.5-1.05c-0.22-0.19-0.47-0.28-0.8-0.28c-0.24,0-0.44,0.07-0.59,0.19   c-0.15,0.14-0.22,0.28-0.22,0.43c0,0.2,0.06,0.36,0.16,0.51c0.11,0.14,0.33,0.29,0.66,0.45l0.78,0.37c0.7,0.34,1.05,0.8,1.05,1.36   c0,0.43-0.17,0.79-0.5,1.05c-0.33,0.27-0.69,0.41-1.1,0.41c-0.29,0-0.62-0.06-1-0.16c-0.12-0.03-0.21-0.05-0.28-0.05   c-0.08,0-0.14,0.04-0.18,0.14h-0.18V62.3h0.18c0.1,0.49,0.28,0.85,0.55,1.11c0.28,0.25,0.58,0.37,0.93,0.37   c0.24,0,0.44-0.08,0.59-0.22c0.16-0.14,0.23-0.31,0.23-0.51c0-0.24-0.08-0.44-0.26-0.6c-0.16-0.16-0.5-0.37-1.01-0.63   c-0.49-0.25-0.83-0.48-0.98-0.68c-0.16-0.2-0.24-0.45-0.24-0.75c0-0.39,0.14-0.72,0.4-0.99c0.27-0.26,0.63-0.4,1.04-0.4   c0.2,0,0.42,0.05,0.69,0.13c0.19,0.05,0.3,0.08,0.36,0.08c0.05,0,0.09-0.02,0.13-0.04c0.03-0.02,0.07-0.08,0.11-0.17H97.2z"></path>
        <path class="st6" d="M99.34,60.03c0.34-0.34,0.56-0.55,0.62-0.6c0.15-0.14,0.32-0.23,0.5-0.31c0.19-0.07,0.36-0.11,0.53-0.11   c0.31,0,0.57,0.09,0.78,0.26c0.22,0.17,0.37,0.44,0.43,0.76c0.36-0.41,0.67-0.7,0.91-0.82c0.25-0.13,0.51-0.21,0.77-0.21   c0.25,0,0.48,0.07,0.67,0.21c0.2,0.12,0.35,0.34,0.47,0.64c0.08,0.2,0.12,0.51,0.12,0.95v2.05c0,0.3,0.02,0.51,0.07,0.62   c0.03,0.07,0.1,0.15,0.19,0.19c0.09,0.06,0.25,0.08,0.46,0.08v0.19h-2.36v-0.19h0.1c0.21,0,0.36-0.04,0.49-0.12   c0.08-0.06,0.13-0.15,0.17-0.27c0.01-0.06,0.02-0.23,0.02-0.51V60.8c0-0.39-0.05-0.67-0.14-0.83c-0.14-0.22-0.36-0.33-0.65-0.33   c-0.18,0-0.37,0.05-0.56,0.14c-0.19,0.09-0.41,0.26-0.68,0.51l-0.01,0.06l0.01,0.22v2.28c0,0.34,0.02,0.53,0.06,0.61   c0.04,0.08,0.11,0.15,0.2,0.2c0.11,0.06,0.28,0.08,0.53,0.08v0.19h-2.42v-0.19c0.26,0,0.44-0.03,0.54-0.09   c0.1-0.06,0.17-0.16,0.21-0.29c0.01-0.05,0.02-0.23,0.02-0.51V60.8c0-0.39-0.05-0.67-0.17-0.84c-0.16-0.23-0.38-0.34-0.65-0.34   c-0.19,0-0.38,0.05-0.56,0.16c-0.29,0.14-0.51,0.32-0.67,0.51v2.56c0,0.31,0.02,0.51,0.06,0.61c0.05,0.09,0.11,0.16,0.2,0.21   c0.09,0.05,0.26,0.07,0.52,0.07v0.19h-2.38v-0.19c0.23,0,0.38-0.02,0.46-0.07c0.09-0.05,0.16-0.12,0.2-0.22   c0.04-0.11,0.06-0.31,0.06-0.6v-1.83c0-0.52-0.01-0.86-0.04-1.01c-0.03-0.11-0.07-0.2-0.12-0.24c-0.05-0.05-0.12-0.06-0.21-0.06   c-0.1,0-0.22,0.02-0.36,0.08l-0.07-0.19L99.11,59h0.23V60.03z"></path>
        <path class="st5" d="M108.97,59v1.64h-0.17c-0.14-0.52-0.3-0.86-0.5-1.05c-0.21-0.19-0.47-0.28-0.8-0.28   c-0.25,0-0.44,0.07-0.58,0.19c-0.16,0.14-0.23,0.28-0.23,0.43c0,0.2,0.05,0.36,0.17,0.51c0.1,0.14,0.32,0.29,0.66,0.45l0.76,0.37   c0.71,0.34,1.06,0.8,1.06,1.36c0,0.43-0.17,0.79-0.5,1.05c-0.33,0.27-0.7,0.41-1.1,0.41c-0.29,0-0.62-0.06-1-0.16   c-0.12-0.03-0.21-0.05-0.28-0.05c-0.08,0-0.14,0.04-0.19,0.14h-0.17V62.3h0.17c0.1,0.49,0.28,0.85,0.56,1.11   c0.27,0.25,0.58,0.37,0.93,0.37c0.24,0,0.44-0.08,0.58-0.22c0.16-0.14,0.23-0.31,0.23-0.51c0-0.24-0.08-0.44-0.25-0.6   c-0.18-0.16-0.51-0.37-1.01-0.63c-0.51-0.25-0.84-0.48-0.99-0.68c-0.16-0.2-0.24-0.45-0.24-0.75c0-0.39,0.14-0.72,0.41-0.99   c0.27-0.26,0.61-0.4,1.05-0.4c0.19,0,0.42,0.05,0.68,0.13c0.18,0.05,0.3,0.08,0.35,0.08c0.06,0,0.1-0.02,0.13-0.04   c0.03-0.02,0.08-0.08,0.11-0.17H108.97z"></path>
        <path class="st5" d="M109.41,59.15h2.23v0.19h-0.1c-0.16,0-0.28,0.04-0.36,0.1c-0.08,0.07-0.12,0.16-0.12,0.26   c0,0.13,0.06,0.32,0.18,0.56l1.17,2.42l1.08-2.65c0.06-0.14,0.09-0.27,0.09-0.42c0-0.06-0.01-0.11-0.03-0.15   c-0.03-0.03-0.08-0.07-0.13-0.09c-0.06-0.03-0.17-0.04-0.32-0.04v-0.19h1.57v0.19c-0.13,0.01-0.23,0.04-0.3,0.08   c-0.06,0.04-0.15,0.13-0.22,0.23c-0.04,0.05-0.1,0.19-0.19,0.41l-1.95,4.77c-0.19,0.46-0.43,0.82-0.75,1.06   c-0.3,0.23-0.6,0.35-0.87,0.35c-0.21,0-0.37-0.06-0.5-0.18c-0.14-0.11-0.2-0.26-0.2-0.41c0-0.15,0.04-0.27,0.14-0.35   c0.1-0.1,0.23-0.15,0.4-0.15c0.11,0,0.28,0.04,0.47,0.12c0.14,0.06,0.22,0.09,0.26,0.09c0.1,0,0.22-0.06,0.34-0.17   c0.12-0.1,0.24-0.32,0.37-0.62l0.34-0.83l-1.72-3.61c-0.05-0.11-0.13-0.24-0.25-0.41c-0.09-0.12-0.16-0.19-0.21-0.24   c-0.08-0.06-0.21-0.1-0.39-0.15V59.15z"></path>
        <path class="st5" d="M117.83,59v1.64h-0.17c-0.13-0.52-0.3-0.86-0.52-1.05c-0.2-0.19-0.47-0.28-0.79-0.28   c-0.25,0-0.44,0.07-0.59,0.19c-0.15,0.14-0.23,0.28-0.23,0.43c0,0.2,0.06,0.36,0.17,0.51c0.11,0.14,0.33,0.29,0.65,0.45l0.76,0.37   c0.71,0.34,1.06,0.8,1.06,1.36c0,0.43-0.16,0.79-0.5,1.05c-0.33,0.27-0.7,0.41-1.11,0.41c-0.28,0-0.62-0.06-0.99-0.16   c-0.12-0.03-0.21-0.05-0.29-0.05c-0.08,0-0.13,0.04-0.19,0.14h-0.17V62.3h0.17c0.1,0.49,0.29,0.85,0.56,1.11   c0.27,0.25,0.58,0.37,0.93,0.37c0.23,0,0.43-0.08,0.58-0.22c0.15-0.14,0.22-0.31,0.22-0.51c0-0.24-0.09-0.44-0.25-0.6   c-0.17-0.16-0.5-0.37-1.01-0.63c-0.51-0.25-0.83-0.48-1-0.68c-0.15-0.2-0.23-0.45-0.23-0.75c0-0.39,0.13-0.72,0.41-0.99   c0.28-0.26,0.61-0.4,1.04-0.4c0.19,0,0.42,0.05,0.69,0.13c0.18,0.05,0.3,0.08,0.35,0.08c0.06,0,0.1-0.02,0.14-0.04   c0.02-0.02,0.07-0.08,0.11-0.17H117.83z"></path>
    </g>
</svg>